<svg width="24" height="26" viewBox="0 0 24 26" fill="none" xmlns="http://www.w3.org/2000/svg">
<g filter="url(#filter0_d_1_1307)">
<path fill-rule="evenodd" clip-rule="evenodd" d="M13.46 2.81002L19.46 6.14002C20.4136 6.67124 21.0034 7.67847 21 8.77002V15.23C21.0034 16.3216 20.4136 17.3288 19.46 17.86L13.46 21.19C12.5524 21.6957 11.4477 21.6957 10.54 21.19L4.54003 17.86C3.58646 17.3288 2.99667 16.3216 3.00003 15.23V8.77002C2.99667 7.67847 3.58646 6.67124 4.54003 6.14002L10.54 2.81002C11.4477 2.30437 12.5524 2.30437 13.46 2.81002ZM18.69 16.55C19.1638 16.2789 19.4572 15.7759 19.46 15.23V8.77002C19.4572 8.22417 19.1638 7.72116 18.69 7.45002L12.69 4.12002C12.2362 3.8672 11.6839 3.8672 11.23 4.12002L5.23003 7.45002C4.75627 7.72116 4.46285 8.22417 4.46003 8.77002V15.23C4.46285 15.7759 4.75627 16.2789 5.23003 16.55L11.23 19.88C11.6839 20.1328 12.2362 20.1328 12.69 19.88L18.69 16.55Z" fill="white"/>
<path d="M16.68 8.20008L12.45 10.5501C12.1715 10.7108 11.8284 10.7108 11.55 10.5501L7.31997 8.20008C7.08546 8.06284 6.79506 8.06317 6.56086 8.20095C6.32667 8.33873 6.18531 8.5924 6.19135 8.86406C6.19739 9.13571 6.34988 9.38285 6.58997 9.51008L10.82 11.8601C10.9603 11.9346 11.1077 11.9949 11.26 12.0401V16.5001C11.26 16.9143 11.5958 17.2501 12.01 17.2501C12.4242 17.2501 12.76 16.9143 12.76 16.5001V12.0001C12.9061 11.96 13.0471 11.903 13.18 11.8301L17.41 9.48008C17.7622 9.27398 17.8849 8.82414 17.6863 8.46769C17.4877 8.11125 17.0405 7.97901 16.68 8.17008V8.20008Z" fill="#F7F7F7"/>
</g>
<defs>
<filter id="filter0_d_1_1307" x="1" y="2.43079" width="22" height="23.1384" filterUnits="userSpaceOnUse" color-interpolation-filters="sRGB">
<feFlood flood-opacity="0" result="BackgroundImageFix"/>
<feColorMatrix in="SourceAlpha" type="matrix" values="0 0 0 0 0 0 0 0 0 0 0 0 0 0 0 0 0 0 127 0" result="hardAlpha"/>
<feOffset dy="2"/>
<feGaussianBlur stdDeviation="1"/>
<feComposite in2="hardAlpha" operator="out"/>
<feColorMatrix type="matrix" values="0 0 0 0 0 0 0 0 0 0 0 0 0 0 0 0 0 0 0.15 0"/>
<feBlend mode="normal" in2="BackgroundImageFix" result="effect1_dropShadow_1_1307"/>
<feBlend mode="normal" in="SourceGraphic" in2="effect1_dropShadow_1_1307" result="shape"/>
</filter>
</defs>
</svg>
