<svg width="24" height="24" viewBox="0 0 24 24" fill="none" xmlns="http://www.w3.org/2000/svg">
<g clip-path="url(#clip0_1_1308)">
<g filter="url(#filter0_d_1_1308)">
<path fill-rule="evenodd" clip-rule="evenodd" d="M1.72766 1.81801C1.62719 1.41617 1.21998 1.17186 0.818137 1.27233C0.416293 1.3728 0.171982 1.78001 0.272453 2.18185L1.3243 6.38883L2.3031 10.4728C2.7193 12.2094 3.0469 13.5763 3.43564 14.6382C3.83441 15.7274 4.32341 16.5731 5.10799 17.2215C5.1757 17.2775 5.24468 17.3319 5.31488 17.3847C6.12834 17.9965 7.06465 18.275 8.21684 18.4089C9.34006 18.5394 10.7456 18.5394 12.5313 18.5394H13.1249C14.6699 18.5394 15.8862 18.5394 16.866 18.4403C17.8696 18.3388 18.6953 18.1282 19.4384 17.663C19.7909 17.4423 20.1184 17.184 20.4152 16.8926C21.114 16.2066 21.5286 15.3452 21.8855 14.2282C22.148 13.4067 22.3926 12.4015 22.6868 11.1749L22.7599 10.8699C22.9771 9.96402 23.156 9.21736 23.2252 8.61247C23.2969 7.98468 23.2677 7.38692 22.9543 6.84113C22.8202 6.60769 22.6527 6.3952 22.4569 6.21045C21.9992 5.77849 21.4247 5.6107 20.7975 5.53416C20.1931 5.46042 19.4253 5.46044 18.4937 5.46046L2.63836 5.46046L1.72766 1.81801ZM3.75069 10.0769L3.00378 6.96046H18.4451C19.4376 6.96046 20.1131 6.96178 20.6158 7.02312C21.1061 7.08295 21.3071 7.18787 21.4274 7.30136C21.5164 7.38534 21.5925 7.48193 21.6535 7.58804C21.7358 7.73144 21.791 7.95138 21.7349 8.44212C21.6839 8.88801 21.5555 9.45493 21.3659 10.2499L14.0002 10.2499C13.5859 10.2499 13.2502 10.5857 13.2502 10.9999C13.2502 11.4141 13.5859 11.7499 14.0002 11.7499H21.0045C20.8655 12.3165 20.7389 12.8117 20.6138 13.2499H17.0002C16.5859 13.2499 16.2502 13.5857 16.2502 13.9999C16.2502 14.4141 16.5859 14.7499 17.0002 14.7499H20.087C19.8739 15.2127 19.6438 15.5479 19.3644 15.8222C19.145 16.0376 18.903 16.2285 18.6424 16.3916C18.1683 16.6885 17.5956 16.8589 16.715 16.9479C15.8194 17.0385 14.6788 17.0394 13.0838 17.0394H12.5791C10.7353 17.0394 9.41668 17.0382 8.39001 16.9189C7.38232 16.8018 6.73806 16.5782 6.21652 16.1859C6.16463 16.1469 6.11364 16.1067 6.0636 16.0653C5.56057 15.6496 5.19297 15.0752 4.84422 14.1225C4.4889 13.1519 4.18044 11.8699 3.75069 10.0769Z" fill="white"/>
<path d="M10.4738 20.8527C10.4738 21.434 10.0025 21.9053 9.42116 21.9053C8.83981 21.9053 8.36853 21.434 8.36853 20.8527C8.36853 20.2713 8.83981 19.8 9.42116 19.8C10.0025 19.8 10.4738 20.2713 10.4738 20.8527Z" fill="white"/>
<path d="M16.7896 20.8527C16.7896 21.434 16.3183 21.9053 15.737 21.9053C15.1556 21.9053 14.6843 21.434 14.6843 20.8527C14.6843 20.2713 15.1556 19.8 15.737 19.8C16.3183 19.8 16.7896 20.2713 16.7896 20.8527Z" fill="white"/>
</g>
</g>
<defs>
<filter id="filter0_d_1_1308" x="-1.75012" y="1.24976" width="27.0078" height="24.6555" filterUnits="userSpaceOnUse" color-interpolation-filters="sRGB">
<feFlood flood-opacity="0" result="BackgroundImageFix"/>
<feColorMatrix in="SourceAlpha" type="matrix" values="0 0 0 0 0 0 0 0 0 0 0 0 0 0 0 0 0 0 127 0" result="hardAlpha"/>
<feOffset dy="2"/>
<feGaussianBlur stdDeviation="1"/>
<feComposite in2="hardAlpha" operator="out"/>
<feColorMatrix type="matrix" values="0 0 0 0 0 0 0 0 0 0 0 0 0 0 0 0 0 0 0.15 0"/>
<feBlend mode="normal" in2="BackgroundImageFix" result="effect1_dropShadow_1_1308"/>
<feBlend mode="normal" in="SourceGraphic" in2="effect1_dropShadow_1_1308" result="shape"/>
</filter>
<clipPath id="clip0_1_1308">
<path d="M0 8C0 3.58172 3.58172 0 8 0H16C20.4183 0 24 3.58172 24 8V24H0V8Z" fill="white"/>
</clipPath>
</defs>
</svg>
