<svg width="24" height="27" viewBox="0 0 24 27" fill="none" xmlns="http://www.w3.org/2000/svg">
<g clip-path="url(#clip0_1_1311)">
<g filter="url(#filter0_d_1_1311)">
<path d="M2.76696 15.8189L3.48025 15.5872L2.76696 15.8189ZM1.65645 9.65084L0.935142 9.44538L1.65645 9.65084ZM6.29367 4.96483L5.85283 4.35806L6.29367 4.96483ZM1.76974 9.30218L2.47405 9.55993L1.76974 9.30218ZM5.79064 21.6772L5.37234 22.2998L5.79064 21.6772ZM5.49405 21.4618L5.03126 22.0519L5.49405 21.4618ZM21.2331 15.8189L21.9464 16.0507L21.2331 15.8189ZM18.506 21.4618L18.9687 22.0519L18.506 21.4618ZM18.2094 21.6772L18.6277 22.2998L18.2094 21.6772ZM17.7063 4.96483L17.2655 5.57159L17.7063 4.96483ZM22.2303 9.30218L21.526 9.55993L22.2303 9.30218ZM22.3436 9.65084L23.0649 9.44538L22.3436 9.65084ZM12.1833 2.00263L12.1558 2.75212L12.1833 2.00263ZM11.8167 2.00263L11.8442 2.75212L11.8167 2.00263ZM3.48025 15.5872C2.96589 14.0041 2.5995 12.8732 2.40725 11.9551C2.21861 11.0542 2.21454 10.4293 2.37776 9.85629L0.935142 9.44538C0.680922 10.3379 0.722784 11.2295 0.939095 12.2625C1.1518 13.2783 1.54938 14.4987 2.05366 16.0507L3.48025 15.5872ZM5.85283 4.35806C4.53261 5.31726 3.49365 6.07085 2.7245 6.76761C1.94232 7.47619 1.38435 8.17295 1.06542 9.04442L2.47405 9.55993C2.67883 9.00039 3.04942 8.49724 3.73157 7.87929C4.42676 7.24952 5.38791 6.54995 6.73451 5.57159L5.85283 4.35806ZM2.37776 9.85629C2.40622 9.75636 2.43834 9.65751 2.47405 9.55993L1.06542 9.04442C1.01711 9.17644 0.973652 9.31018 0.935142 9.44538L2.37776 9.85629ZM12 21.7771C10.3355 21.7771 9.14673 21.7761 8.21414 21.6752C7.29905 21.5763 6.70349 21.387 6.20894 21.0547L5.37234 22.2998C6.1426 22.8173 7.00355 23.0531 8.05284 23.1665C9.08464 23.2781 10.3681 23.2771 12 23.2771V21.7771ZM2.05366 16.0507C2.55794 17.6027 2.95359 18.8237 3.37858 19.7705C3.81077 20.7334 4.301 21.4793 5.03126 22.0519L5.95684 20.8716C5.48796 20.5039 5.12396 19.996 4.74704 19.1562C4.36292 18.3005 3.9946 17.1702 3.48025 15.5872L2.05366 16.0507ZM6.20894 21.0547C6.12269 20.9968 6.0386 20.9357 5.95684 20.8716L5.03126 22.0519C5.14189 22.1387 5.25566 22.2213 5.37234 22.2998L6.20894 21.0547ZM20.5198 15.5872C20.0054 17.1702 19.6371 18.3005 19.253 19.1562C18.8761 19.996 18.5121 20.5039 18.0432 20.8716L18.9687 22.0519C19.699 21.4793 20.1892 20.7334 20.6214 19.7705C21.0464 18.8237 21.4421 17.6027 21.9464 16.0507L20.5198 15.5872ZM12 23.2771C13.6319 23.2771 14.9154 23.2781 15.9472 23.1665C16.9965 23.0531 17.8574 22.8173 18.6277 22.2998L17.7911 21.0547C17.2965 21.387 16.701 21.5763 15.7859 21.6752C14.8533 21.7761 13.6645 21.7771 12 21.7771V23.2771ZM18.0432 20.8716C17.9614 20.9357 17.8773 20.9968 17.7911 21.0547L18.6277 22.2998C18.7444 22.2213 18.8581 22.1387 18.9687 22.0519L18.0432 20.8716ZM17.2655 5.57159C18.6121 6.54995 19.5733 7.24952 20.2684 7.87929C20.9506 8.49724 21.3212 9.00039 21.526 9.55993L22.9346 9.04442C22.6157 8.17295 22.0577 7.47619 21.2755 6.76761C20.5064 6.07085 19.4674 5.31726 18.1472 4.35806L17.2655 5.57159ZM21.9464 16.0507C22.4506 14.4987 22.8482 13.2783 23.0609 12.2625C23.2772 11.2295 23.3191 10.3379 23.0649 9.44538L21.6223 9.85629C21.7855 10.4293 21.7814 11.0542 21.5928 11.9551C21.4005 12.8732 21.0341 14.0041 20.5198 15.5872L21.9464 16.0507ZM21.526 9.55993C21.5617 9.65751 21.5938 9.75636 21.6223 9.85629L23.0649 9.44538C23.0264 9.31018 22.9829 9.17644 22.9346 9.04442L21.526 9.55993ZM18.1472 4.35806C16.827 3.39887 15.7892 2.64363 14.8889 2.12744C13.9733 1.6025 13.1382 1.28715 12.2108 1.25313L12.1558 2.75212C12.7512 2.77397 13.3443 2.97094 14.1428 3.42874C14.9566 3.8953 15.9189 4.59323 17.2655 5.57159L18.1472 4.35806ZM6.73451 5.57159C8.0811 4.59323 9.04345 3.8953 9.85722 3.42874C10.6557 2.97094 11.2488 2.77397 11.8442 2.75212L11.7892 1.25313C10.8618 1.28715 10.0268 1.6025 9.11115 2.12744C8.21081 2.64363 7.17305 3.39887 5.85283 4.35806L6.73451 5.57159ZM12.2108 1.25313C12.0703 1.24798 11.9297 1.24798 11.7892 1.25313L11.8442 2.75212C11.948 2.74832 12.052 2.74832 12.1558 2.75212L12.2108 1.25313Z" fill="white"/>
<path d="M9.99988 17.0696C9.58566 17.0696 9.24988 17.4054 9.24988 17.8196C9.24988 18.2338 9.58566 18.5696 9.99988 18.5696V17.0696ZM13.9999 18.5696C14.4141 18.5696 14.7499 18.2338 14.7499 17.8196C14.7499 17.4054 14.4141 17.0696 13.9999 17.0696V18.5696ZM9.99988 18.5696H13.9999V17.0696H9.99988V18.5696Z" fill="#F7F7F7"/>
</g>
</g>
<defs>
<filter id="filter0_d_1_1311" x="-1.23975" y="1.24927" width="26.4795" height="26.0278" filterUnits="userSpaceOnUse" color-interpolation-filters="sRGB">
<feFlood flood-opacity="0" result="BackgroundImageFix"/>
<feColorMatrix in="SourceAlpha" type="matrix" values="0 0 0 0 0 0 0 0 0 0 0 0 0 0 0 0 0 0 127 0" result="hardAlpha"/>
<feOffset dy="2"/>
<feGaussianBlur stdDeviation="1"/>
<feComposite in2="hardAlpha" operator="out"/>
<feColorMatrix type="matrix" values="0 0 0 0 0 0 0 0 0 0 0 0 0 0 0 0 0 0 0.15 0"/>
<feBlend mode="normal" in2="BackgroundImageFix" result="effect1_dropShadow_1_1311"/>
<feBlend mode="normal" in="SourceGraphic" in2="effect1_dropShadow_1_1311" result="shape"/>
</filter>
<clipPath id="clip0_1_1311">
<path d="M0 8C0 3.58172 3.58172 0 8 0H16C20.4183 0 24 3.58172 24 8V27H0V8Z" fill="white"/>
</clipPath>
</defs>
</svg>
