<svg width="14" height="16" viewBox="0 0 14 16" fill="none" xmlns="http://www.w3.org/2000/svg">
<path d="M6.41666 1.25416H5.24999C2.33332 1.25416 1.16666 2.50832 1.16666 5.64374V9.40624C1.16666 12.5417 2.33332 13.7958 5.24999 13.7958H8.74999C11.6667 13.7958 12.8333 12.5417 12.8333 9.40624V8.15207" stroke="#1A1A27" stroke-width="0.777778" stroke-linecap="round" stroke-linejoin="round"/>
<path d="M9.35669 1.8938L4.76002 6.83522C4.58502 7.02335 4.41002 7.39333 4.37502 7.66297L4.12419 9.55049C4.03085 10.234 4.48002 10.7106 5.11585 10.6165L6.87169 10.3469C7.11669 10.3093 7.46085 10.1211 7.64169 9.93301L12.2384 4.9916C13.0317 4.13876 13.405 3.14797 12.2384 1.8938C11.0717 0.639638 10.15 1.04097 9.35669 1.8938Z" stroke="#1A1A27" stroke-width="0.777778" stroke-miterlimit="10" stroke-linecap="round" stroke-linejoin="round"/>
<path d="M8.69751 2.60238C9.08834 4.10111 10.1792 5.27376 11.5792 5.70017" stroke="#1A1A27" stroke-width="0.777778" stroke-miterlimit="10" stroke-linecap="round" stroke-linejoin="round"/>
</svg>
