<svg width="13" height="15" viewBox="0 0 13 15" fill="none" xmlns="http://www.w3.org/2000/svg">
<path fill-rule="evenodd" clip-rule="evenodd" d="M6.375 3.27857C5.33029 3.27857 4.30904 3.58836 3.4404 4.16877C2.57176 4.74918 1.89473 5.57414 1.49494 6.53932C1.09515 7.50451 0.990541 8.56657 1.19435 9.5912C1.39817 10.6158 1.90124 11.557 2.63996 12.2957C3.37868 13.0345 4.31987 13.5375 5.3445 13.7414C6.36914 13.9452 7.4312 13.8406 8.39639 13.4408C9.36157 13.041 10.1865 12.364 10.7669 11.4953C11.3473 10.6267 11.6571 9.60542 11.6571 8.56071C11.6571 8.25893 11.9018 8.01428 12.2036 8.01428C12.5054 8.01428 12.75 8.25893 12.75 8.56071C12.75 9.82157 12.3761 11.0541 11.6756 12.1025C10.9751 13.1508 9.97948 13.9679 8.8146 14.4504C7.64973 14.9329 6.36793 15.0592 5.1313 14.8132C3.89467 14.5672 2.75875 13.9601 1.8672 13.0685C0.975636 12.177 0.368476 11.041 0.122496 9.80441C-0.123485 8.56778 0.00276144 7.28598 0.48527 6.1211C0.967779 4.95623 1.78488 3.96059 2.83324 3.26009C3.88161 2.5596 5.11415 2.18571 6.375 2.18571C6.67678 2.18571 6.92143 2.43036 6.92143 2.73214C6.92143 3.03393 6.67678 3.27857 6.375 3.27857Z" fill="#1A1A27"/>
<path fill-rule="evenodd" clip-rule="evenodd" d="M4.53147 0.160045C4.74487 -0.0533483 5.09085 -0.0533483 5.30424 0.160045L7.23237 2.08817C7.58802 2.44383 7.58802 3.02046 7.23237 3.37611L5.30424 5.30424C5.09085 5.51763 4.74487 5.51763 4.53147 5.30424C4.31808 5.09084 4.31808 4.74486 4.53147 4.53147L6.3308 2.73214L4.53147 0.932812C4.31808 0.719418 4.31808 0.373439 4.53147 0.160045Z" fill="#1A1A27"/>
</svg>
